<?xml version="1.0" encoding="UTF-8"?>
<svg width="445px" height="380px" viewBox="0 0 445 380" version="1.1" xmlns="http://www.w3.org/2000/svg" xmlns:xlink="http://www.w3.org/1999/xlink">
    <!-- Generator: Sketch 45.1 (43504) - http://www.bohemiancoding.com/sketch -->
    <title>illus_maintenance</title>
    <desc>Created with Sketch.</desc>
    <defs></defs>
    <g id="Page-1" stroke="none" stroke-width="1" fill="none" fill-rule="evenodd">
        <g id="Artboard" transform="translate(-29.000000, -39.000000)">
            <g id="illus_maintenance" transform="translate(29.000000, 41.000000)">
                <g id="large-phone" transform="translate(115.933672, 185.297180) rotate(8.000000) translate(-115.933672, -185.297180) translate(20.433672, 31.797180)">
                    <path d="M20.4370301,29.6033835 C17.1233216,29.6033835 14.4370301,32.289675 14.4370301,35.6033835 L14.4370301,261.986169 C14.4370301,265.299878 17.1233216,267.986169 20.4370301,267.986169 L169.56297,267.986169 C172.876678,267.986169 175.56297,265.299878 175.56297,261.986169 L175.56297,35.6033835 C175.56297,32.289675 172.876678,29.6033835 169.56297,29.6033835 L20.4370301,29.6033835 Z" id="Rectangle" stroke-opacity="0.794978487" stroke="#0080FF" stroke-width="4"></path>
                    <path d="M126.917293,140.834586 C135.155887,140.834586 141.834586,134.155887 141.834586,125.917293 C141.834586,117.6787 135.155887,111 126.917293,111 C118.6787,111 112,117.6787 112,125.917293" id="Oval" stroke="#0078A8" stroke-width="4" stroke-linecap="round" stroke-linejoin="round" transform="translate(126.917293, 125.917293) rotate(9.000000) translate(-126.917293, -125.917293) "></path>
                    <path d="M59.8721805,140.533835 C68.110774,140.533835 74.7894737,133.855135 74.7894737,125.616541 C74.7894737,117.377948 68.110774,110.699248 59.8721805,110.699248 C51.6335869,110.699248 44.9548872,117.377948 44.9548872,125.616541" id="Oval-Copy" stroke="#E0E0E0" stroke-width="4" stroke-linecap="round" stroke-linejoin="round" transform="translate(59.872180, 125.616541) rotate(80.000000) translate(-59.872180, -125.616541) "></path>
                    <path d="M84.481203,156.924812 L100.456677,156.924812" id="Line" stroke="#00A2FF" stroke-width="4" stroke-linecap="round" stroke-linejoin="round"></path>
                    <path d="M34.2349624,2.94924812 L8.98308271,2.94924812 L8.98308271,2.94924812 C4.56480471,2.94924812 0.983082707,6.53097012 0.983082707,10.9492481 L0.983082707,298.304125 L0.983082707,298.304125 C0.983082707,302.722403 4.56480471,306.304125 8.98308271,306.304125 L182.876293,306.304125 L182.876293,306.304125 C187.294571,306.304125 190.876293,302.722403 190.876293,298.304125 L190.876293,10.9492481 L190.876293,10.9492481 C190.876293,6.53097012 187.294571,2.94924812 182.876293,2.94924812" id="Path-3" stroke="#0080FF" stroke-width="4" stroke-linecap="round" stroke-linejoin="round"></path>
                    <circle id="Oval-2" stroke="#E0E0E0" stroke-width="3" cx="95.0535714" cy="287.835526" r="10.6400376"></circle>
                    <path d="M41.2218045,2.90977444 L56.3627226,2.90977444" id="Path-4" stroke-opacity="0.299139493" stroke="#0080FF" stroke-width="4" stroke-linecap="round" stroke-linejoin="round"></path>
                    <path d="M63.3571429,2.90977444 L175.858572,2.90977444" id="Path-4" stroke-opacity="0.516134511" stroke="#0080FF" stroke-width="4" stroke-linecap="round" stroke-linejoin="round"></path>
                    <path d="M63.3571429,2.90977444 L175.858572,2.90977444" id="Path-4" stroke-opacity="0.516134511" stroke="#0080FF" stroke-width="4" stroke-linecap="round" stroke-linejoin="round"></path>
                </g>
                <g id="small-phone" transform="translate(332.687640, 233.147577) rotate(-18.000000) translate(-332.687640, -233.147577) translate(253.687640, 105.147577)">
                    <path d="M12.4375,0.603515625 L143.199276,0.603515625 L143.199276,0.603515625 C150.931263,0.603515625 157.199276,6.87152913 157.199276,14.6035156 L157.199276,241.369141 L157.199276,241.369141 C157.199276,249.101127 150.931263,255.369141 143.199276,255.369141 L101.506488,255.369141" id="Path-5" stroke="#0080FF" stroke-width="4" stroke-linecap="round" stroke-linejoin="round"></path>
                    <path d="M2,231.929688 L2,202" id="Path-7" stroke="#0080FF" stroke-width="4" stroke-linecap="round" stroke-linejoin="round"></path>
                    <path d="M2,194.929688 L2,185" id="Path-7-Copy" stroke-opacity="0.3" stroke="#0080FF" stroke-width="4" stroke-linecap="round" stroke-linejoin="round"></path>
                    <path d="M2,172.929687 L2,23.9966427" id="Path-7-Copy-2" stroke-opacity="0.3" stroke="#0080FF" stroke-width="4" stroke-linecap="round" stroke-linejoin="round"></path>
                    <path d="M144.412109,209.291016 L144.412109,217.13357 L144.412109,217.13357 C144.412109,219.342709 142.621248,221.13357 140.412109,221.13357 L18.0635648,221.13357 L18.0635648,221.13357 C15.8544258,221.13357 14.0635648,219.342709 14.0635648,217.13357 L14.0635648,41.1616693 L14.0635648,41.1616693 C14.0635648,38.9525303 15.8544258,37.1616693 18.0635648,37.1616693 L139.819401,37.1616693 L139.819401,37.1616693 C142.02854,37.1616693 143.819401,38.9525303 143.819401,41.1616693 L143.819401,195.580481 L143.819401,195.580481 C143.819401,196.067227 143.830507,196.553909 143.852709,197.040147" id="Path-8" stroke-opacity="0.3" stroke="#0080FF" stroke-width="3" stroke-linecap="round" stroke-linejoin="round"></path>
                    <path d="M88,137 C88,132.029437 83.9705627,128 79,128 C74.0294373,128 70,132.029437 70,137" id="Oval-4" stroke="#00A2FF" stroke-width="4" stroke-linecap="round" stroke-linejoin="round"></path>
                    <path d="M53.7257124,93.60967 C54.0393949,93.0663559 54.7284855,92.8769451 55.2732639,93.1914731 C55.8142706,93.5038234 55.9977894,94.1987992 55.6848706,94.7407905 L53.4274539,98.650751 C53.1137713,99.1940651 52.4246807,99.3834758 51.8799023,99.0689479 C51.3388957,98.7565976 51.1553768,98.0616217 51.4682956,97.5196305 L53.7257124,93.60967 Z M47.4100083,92.5984194 C47.4100083,91.9710544 47.9120729,91.4624745 48.5411289,91.4624745 C49.1658295,91.4624745 49.6722494,91.9725818 49.6722494,92.5984194 L49.6722494,97.1132529 C49.6722494,97.740618 49.1701848,98.2491978 48.5411289,98.2491978 C47.9164282,98.2491978 47.4100083,97.7390905 47.4100083,97.1132529 L47.4100083,92.5984194 Z M58.8965429,97.8476384 C59.439857,97.5339559 60.1313323,97.7144667 60.4458603,98.2592451 C60.7582106,98.8002517 60.5696547,99.4938778 60.0276634,99.8067966 L56.1177029,102.064213 C55.5743889,102.377896 54.8829135,102.197385 54.5683855,101.652607 C54.2560352,101.1116 54.4445911,100.417974 54.9865824,100.105055 L58.8965429,97.8476384 Z M60.8170419,103.872483 C61.444407,103.872483 61.9529868,104.374547 61.9529868,105.003603 C61.9529868,105.628304 61.4428795,106.134724 60.8170419,106.134724 L56.3022084,106.134724 C55.6748434,106.134724 55.1662635,105.632659 55.1662635,105.003603 C55.1662635,104.378903 55.6763708,103.872483 56.3022084,103.872483 L60.8170419,103.872483 Z M60.0276634,110.188187 C60.5709775,110.501869 60.7603883,111.19096 60.4458603,111.735738 C60.13351,112.276745 59.4385342,112.460264 58.8965429,112.147345 L54.9865824,109.889928 C54.4432683,109.576246 54.2538576,108.887155 54.5683855,108.342377 C54.8807358,107.80137 55.5757117,107.617851 56.1177029,107.93077 L60.0276634,110.188187 Z M55.6848706,115.359017 C55.9985531,115.902331 55.8180424,116.593807 55.2732639,116.908335 C54.7322573,117.220685 54.0386312,117.032129 53.7257124,116.490138 L51.4682956,112.580177 C51.1546131,112.036863 51.3351239,111.345388 51.8799023,111.03086 C52.4209089,110.71851 53.1145351,110.907066 53.4274539,111.449057 L55.6848706,115.359017 Z M49.6722494,117.279516 C49.6722494,117.906882 49.1701848,118.415461 48.5411289,118.415461 C47.9164282,118.415461 47.4100083,117.905354 47.4100083,117.279516 L47.4100083,112.764683 C47.4100083,112.137318 47.9120729,111.628738 48.5411289,111.628738 C49.1658295,111.628738 49.6722494,112.138845 49.6722494,112.764683 L49.6722494,117.279516 Z M43.3443221,116.490138 C43.0306396,117.033452 42.3415489,117.222863 41.7967705,116.908335 C41.2557639,116.595985 41.072245,115.901009 41.3851638,115.359017 L43.6425806,111.449057 C43.9562631,110.905743 44.6453538,110.716332 45.1901322,111.03086 C45.7311388,111.34321 45.9146577,112.038186 45.6017389,112.580177 L43.3443221,116.490138 Z M38.278316,112.147345 C37.7350019,112.461028 37.0435265,112.280517 36.7289986,111.735738 C36.4166482,111.194732 36.6052042,110.501106 37.1471954,110.188187 L41.0571559,107.93077 C41.60047,107.617088 42.2919454,107.797598 42.6064733,108.342377 C42.9188237,108.883383 42.7302677,109.57701 42.1882765,109.889928 L38.278316,112.147345 Z M36.1359449,106.134724 C35.5085799,106.134724 35,105.632659 35,105.003603 C35,104.378903 35.5101073,103.872483 36.1359449,103.872483 L40.6507784,103.872483 C41.2781434,103.872483 41.7867233,104.374547 41.7867233,105.003603 C41.7867233,105.628304 41.276616,106.134724 40.6507784,106.134724 L36.1359449,106.134724 Z M37.1471954,99.8067966 C36.6038814,99.4931141 36.4144706,98.8040235 36.7289986,98.2592451 C37.0413489,97.7182385 37.7363247,97.5347196 38.278316,97.8476384 L42.1882765,100.105055 C42.7315905,100.418738 42.9210013,101.107828 42.6064733,101.652607 C42.294123,102.193613 41.5991472,102.377132 41.0571559,102.064213 L37.1471954,99.8067966 Z M41.3851638,94.7407905 C41.0714813,94.1974764 41.2519921,93.5060011 41.7967705,93.1914731 C42.3377771,92.8791228 43.0314033,93.0676787 43.3443221,93.60967 L45.6017389,97.5196305 C45.9154214,98.0629445 45.7349106,98.7544199 45.1901322,99.0689479 C44.6491256,99.3812982 43.9554994,99.1927423 43.6425806,98.650751 L41.3851638,94.7407905 Z" id="Combined-Shape" fill="#0078A8"></path>
                    <path d="M111.725712,93.60967 C112.039395,93.0663559 112.728486,92.8769451 113.273264,93.1914731 C113.814271,93.5038234 113.997789,94.1987992 113.684871,94.7407905 L111.427454,98.650751 C111.113771,99.1940651 110.424681,99.3834758 109.879902,99.0689479 C109.338896,98.7565976 109.155377,98.0616217 109.468296,97.5196305 L111.725712,93.60967 Z M105.410008,92.5984194 C105.410008,91.9710544 105.912073,91.4624745 106.541129,91.4624745 C107.16583,91.4624745 107.672249,91.9725818 107.672249,92.5984194 L107.672249,97.1132529 C107.672249,97.740618 107.170185,98.2491978 106.541129,98.2491978 C105.916428,98.2491978 105.410008,97.7390905 105.410008,97.1132529 L105.410008,92.5984194 Z M116.896543,97.8476384 C117.439857,97.5339559 118.131332,97.7144667 118.44586,98.2592451 C118.758211,98.8002517 118.569655,99.4938778 118.027663,99.8067966 L114.117703,102.064213 C113.574389,102.377896 112.882913,102.197385 112.568386,101.652607 C112.256035,101.1116 112.444591,100.417974 112.986582,100.105055 L116.896543,97.8476384 Z M118.817042,103.872483 C119.444407,103.872483 119.952987,104.374547 119.952987,105.003603 C119.952987,105.628304 119.44288,106.134724 118.817042,106.134724 L114.302208,106.134724 C113.674843,106.134724 113.166264,105.632659 113.166264,105.003603 C113.166264,104.378903 113.676371,103.872483 114.302208,103.872483 L118.817042,103.872483 Z M118.027663,110.188187 C118.570978,110.501869 118.760388,111.19096 118.44586,111.735738 C118.13351,112.276745 117.438534,112.460264 116.896543,112.147345 L112.986582,109.889928 C112.443268,109.576246 112.253858,108.887155 112.568386,108.342377 C112.880736,107.80137 113.575712,107.617851 114.117703,107.93077 L118.027663,110.188187 Z M113.684871,115.359017 C113.998553,115.902331 113.818042,116.593807 113.273264,116.908335 C112.732257,117.220685 112.038631,117.032129 111.725712,116.490138 L109.468296,112.580177 C109.154613,112.036863 109.335124,111.345388 109.879902,111.03086 C110.420909,110.71851 111.114535,110.907066 111.427454,111.449057 L113.684871,115.359017 Z M107.672249,117.279516 C107.672249,117.906882 107.170185,118.415461 106.541129,118.415461 C105.916428,118.415461 105.410008,117.905354 105.410008,117.279516 L105.410008,112.764683 C105.410008,112.137318 105.912073,111.628738 106.541129,111.628738 C107.16583,111.628738 107.672249,112.138845 107.672249,112.764683 L107.672249,117.279516 Z M101.344322,116.490138 C101.03064,117.033452 100.341549,117.222863 99.7967705,116.908335 C99.2557639,116.595985 99.072245,115.901009 99.3851638,115.359017 L101.642581,111.449057 C101.956263,110.905743 102.645354,110.716332 103.190132,111.03086 C103.731139,111.34321 103.914658,112.038186 103.601739,112.580177 L101.344322,116.490138 Z M96.278316,112.147345 C95.7350019,112.461028 95.0435265,112.280517 94.7289986,111.735738 C94.4166482,111.194732 94.6052042,110.501106 95.1471954,110.188187 L99.0571559,107.93077 C99.60047,107.617088 100.291945,107.797598 100.606473,108.342377 C100.918824,108.883383 100.730268,109.57701 100.188276,109.889928 L96.278316,112.147345 Z M94.1359449,106.134724 C93.5085799,106.134724 93,105.632659 93,105.003603 C93,104.378903 93.5101073,103.872483 94.1359449,103.872483 L98.6507784,103.872483 C99.2781434,103.872483 99.7867233,104.374547 99.7867233,105.003603 C99.7867233,105.628304 99.276616,106.134724 98.6507784,106.134724 L94.1359449,106.134724 Z M95.1471954,99.8067966 C94.6038814,99.4931141 94.4144706,98.8040235 94.7289986,98.2592451 C95.0413489,97.7182385 95.7363247,97.5347196 96.278316,97.8476384 L100.188276,100.105055 C100.731591,100.418738 100.921001,101.107828 100.606473,101.652607 C100.294123,102.193613 99.5991472,102.377132 99.0571559,102.064213 L95.1471954,99.8067966 Z M99.3851638,94.7407905 C99.0714813,94.1974764 99.2519921,93.5060011 99.7967705,93.1914731 C100.337777,92.8791228 101.031403,93.0676787 101.344322,93.60967 L103.601739,97.5196305 C103.915421,98.0629445 103.734911,98.7544199 103.190132,99.0689479 C102.649126,99.3812982 101.955499,99.1927423 101.642581,98.650751 L99.3851638,94.7407905 Z" id="Combined-Shape" fill="#00A2FF"></path>
                    <path d="M87.1152344,255.869141 L15.4494447,255.869141 L15.4494447,255.869141 C7.7174582,255.869141 1.44944469,249.601127 1.44944469,241.869141 L1.44944469,240.251905" id="Path-6" stroke="#0078A8" stroke-width="4" stroke-linecap="round" stroke-linejoin="round"></path>
                </g>
                <g id="!" transform="translate(228.436280, 303.111264) rotate(9.000000) translate(-228.436280, -303.111264) translate(179.436280, 258.111264)" stroke="#D1D1D1" stroke-width="3" stroke-linecap="round" stroke-linejoin="round">
                    <polyline id="Triangle" points="48.5664062 0 97.1328125 89.4644326 0 89.4644326 6.93449201 75.9012352"></polyline>
                    <path d="M10.3195158,70.2124023 L19.9049907,52.3195158" id="Line-2"></path>
                    <path d="M22.3195158,48.8859221 L48.8393298,0" id="Line-2-Copy"></path>
                    <polyline id="Triangle-2" points="48.7443205 15 85.488641 82.7373561 12 82.7373561"></polyline>
                    <path d="M48.1936346,69.1690989 L47.9528952,54" id="Line-3-Copy"></path>
                    <path d="M46.9528952,76.799116 L46.9528952,73" id="Line-3-Copy-2"></path>
                    <path d="M48.5289523,56.3803396 C53.7916474,56.3803396 58.0579047,52.2657604 58.0579047,47.1901698 C58.0579047,42.1145792 53.7916474,38 48.5289523,38 C43.2662573,38 39,42.1145792 39,47.1901698" id="Oval-3"></path>
                </g>
                <g id="!-copy" transform="translate(317.412151, 103.355278) scale(-1, 1) rotate(-16.000000) translate(-317.412151, -103.355278) translate(278.412151, 67.355278)" stroke="#0F0F0F" stroke-width="2" stroke-linecap="round" stroke-linejoin="round">
                    <polyline id="Triangle" points="38.8647271 0.20692785 77.7294542 71.7998462 -1.13686838e-13 71.7998462 5.5492502 60.9460481"></polyline>
                    <path d="M7.92635882,56.7141955 L15.5970286,42.3956119" id="Line-2"></path>
                    <path d="M17.6425406,39.3273439 L38.8647271,0.20692785" id="Line-2-Copy"></path>
                    <polyline id="Triangle-2" points="39.1204161 12.4799996 68.5246504 66.6860663 9.71618177 66.6860663"></polyline>
                    <path d="M37.833755,56.3207727 L38.3126747,24.4662829" id="Line-3-Copy"></path>
                    <path d="M38.2994942,60.6934669 L38.2994942,60.6934669" id="Line-3-Copy-2"></path>
                </g>
                <path d="M371.609675,107.157031 L392.076172,91.0390625 M343,99.0980469 L371.609675,74.1601563 L343,99.0980469 Z M361.911133,99.1963187 L399.071289,66.5107126 L361.911133,99.1963187 Z" id="swoop" stroke="#FFBC18" stroke-width="4" stroke-linecap="round" stroke-linejoin="round"></path>
                <path d="M115.660457,42.0332031 L151.814754,14.4824219 M104.929688,19.1757812 L130.154297,0 L104.929688,19.1757812 Z M94.9514289,41.615767 L129.202868,14.899858 L94.9514289,41.615767 Z" id="swoop-2" stroke="#5F52CB" stroke-width="4" stroke-linecap="round" stroke-linejoin="round"></path>
                <path d="M105,351.117969 L125.466496,335 M52,360.589844 L92.6113281,329 L52,360.589844 Z M72.0687192,360.11121 L110.542609,329.478634 L72.0687192,360.11121 Z" id="swoop-3" stroke="#FFBC18" stroke-width="4" stroke-linecap="round" stroke-linejoin="round"></path>
                <path d="M418,283.117969 L438.466496,267 M401,264.906641 L435,239 L401,264.906641 Z M402.068719,281.958866 L440.542609,251.32629 L402.068719,281.958866 Z" id="swoop-4" stroke="#26CCC4" stroke-width="4" stroke-linecap="round" stroke-linejoin="round"></path>
            </g>
        </g>
    </g>
</svg>