<svg xmlns="http://www.w3.org/2000/svg" viewBox="0 0 468 467.96"><defs><style>.cls-1{fill:#0080ff;}.cls-2{fill:#231f20;}</style></defs><title>pw_logo</title><g id="Layer_2" data-name="Layer 2"><g id="Layer_1-2" data-name="Layer 1"><path class="cls-1" d="M234,468C105,468,0,363,0,234S105,0,234,0,468,105,468,234,363,468,234,468ZM234,24.3C118.38,24.3,24.31,118.38,24.31,234S118.38,443.63,234,443.63s209.68-94,209.68-209.64S349.59,24.3,234,24.3Z"/><path class="cls-2" d="M298,232c-6.33-.76-11.79,4.5-11.79,10.88v66l-40.93-42.23c-4.24-4.28-6.39-5.58-10.61-5.58s-6.43,1.3-10.68,5.58L182.2,308.84V215.59h78.25c24.1,0,44.78-18.08,47-42.08a46.64,46.64,0,0,0-46.38-50.92H170.9a10.56,10.56,0,0,0-10.7,10.67v201.2a10.58,10.58,0,0,0,10.7,10.68c4.29,0,6.37-1.31,10.65-5.54l52.16-53,52.13,53c4.4,4.34,6.51,5.61,11,5.54a10.64,10.64,0,0,0,10.38-10.69V242.38A10.39,10.39,0,0,0,298,232ZM181.2,143.59h79.43c15,0,25.15,12.38,25.15,26s-10.2,26-25.15,26H181.2Z"/></g></g></svg>